<?xml version="1.0" encoding="UTF-8"?>
<svg version="1.1" xmlns="http://www.w3.org/2000/svg" width="288" height="288">
<path d="M0 0 C95.04 0 190.08 0 288 0 C288 95.04 288 190.08 288 288 C192.96 288 97.92 288 0 288 C0 192.96 0 97.92 0 0 Z " fill="#62026C" transform="translate(0,0)"/>
<path d="M0 0 C95.04 0 190.08 0 288 0 C288 95.04 288 190.08 288 288 C192.96 288 97.92 288 0 288 C0 192.96 0 97.92 0 0 Z M48.953125 25.3984375 C44.07698502 32.10816731 41.84940402 37.53521281 41.82495117 45.82641602 C41.78511246 53.78087909 41.5641782 59.08233757 35.78515625 65.015625 C30.45238474 70.94351981 28.8797017 79.65099347 28.85955811 87.3605957 C28.85384796 88.66977463 28.84813782 89.97895355 28.84225464 91.32780457 C28.84100932 92.77713003 28.83988422 94.22645561 28.83886719 95.67578125 C28.83423719 97.20368062 28.82921229 98.73157883 28.82382202 100.25947571 C28.81070842 104.41073819 28.80425441 108.56198451 28.79981136 112.71326447 C28.79687731 115.31045243 28.79277175 117.90763602 28.78830719 120.50482178 C28.77463136 128.64094904 28.76496666 136.77706624 28.7611053 144.91320419 C28.75663239 154.2852717 28.73912058 163.6571928 28.7101047 173.02921581 C28.68842718 180.28462868 28.67839769 187.54000056 28.67706418 194.79544544 C28.67601995 199.12293442 28.67019469 203.45028579 28.65224457 207.77774048 C28.63565992 211.85551775 28.63365829 215.93305556 28.64238358 220.01085472 C28.64314858 221.49905225 28.6388829 222.98726321 28.62892532 224.47542763 C28.54009205 238.59162146 30.15402824 251.44759017 40.0390625 262.22265625 C51.92160673 273.45438975 64.49255975 275.30277799 80.20581055 275.29052734 C81.74253158 275.2965193 83.27924961 275.30332638 84.81596375 275.31088257 C88.97327134 275.32848442 93.13049649 275.33323556 97.28783774 275.33451414 C99.89109185 275.3359399 102.49432528 275.34021757 105.09757423 275.34550858 C114.19649195 275.36399145 123.29535124 275.3721816 132.39428711 275.37060547 C140.8478323 275.36940538 149.30112163 275.39048609 157.75460213 275.4220928 C165.03474863 275.44833302 172.31481197 275.45896949 179.59500533 275.45769465 C183.93312039 275.45718718 188.27100801 275.46275028 192.60907555 275.48405075 C196.694365 275.50356366 200.77921315 275.50346958 204.86451912 275.48901749 C206.35391264 275.48694417 207.84333474 275.49154093 209.33267975 275.5037384 C224.53577469 275.62006718 236.57863607 272.53638258 247.99609375 262.19140625 C255.42693102 254.50488426 259.10805038 244.12062753 259.14717102 233.56347656 C259.15084771 232.91924083 259.1545244 232.27500509 259.1583125 231.61124706 C259.1693176 229.45436491 259.17318783 227.29753099 259.17700195 225.140625 C259.18326922 223.59302112 259.18991626 222.04541874 259.19691467 220.49781799 C259.21793395 215.41522261 259.22831813 210.33262701 259.23828125 205.25 C259.24233023 203.49693791 259.24644719 201.74387598 259.25063133 199.99081421 C259.26968184 191.75003824 259.28391065 183.50927119 259.2922433 175.26847744 C259.30200208 165.77524701 259.32828654 156.28225059 259.36874419 146.78910255 C259.39898122 139.44027326 259.41371953 132.09151073 259.41702431 124.74262047 C259.41936702 120.35919173 259.42822468 115.97601302 259.45348549 111.59265137 C259.47690309 107.46229604 259.48094502 103.33235288 259.47072411 99.20194817 C259.47023187 97.6943925 259.47645917 96.18681559 259.49028015 94.6793232 C259.58756509 83.42930847 258.73629012 73.19725094 251.3125 64.25 C247.15485786 58.77709528 247.30452935 53.39428323 247.14453125 46.83203125 C246.76422914 36.74888617 242.70196072 29.45183045 236 22 C226.26060607 13.38168739 215.04813509 12.55053481 202.52929688 12.59594727 C201.09578422 12.5902335 199.6622761 12.58326537 198.22877502 12.57514954 C194.36305007 12.55731606 190.49755331 12.55836759 186.6317997 12.56409192 C183.39384142 12.56719741 180.15592613 12.56107643 176.917974 12.55505317 C169.27519448 12.54104241 161.63252684 12.542541 153.98974609 12.55395508 C146.12683642 12.56543899 138.26426772 12.55134831 130.40140295 12.5245586 C123.62825301 12.50235283 116.85520973 12.495775 110.082026 12.50163502 C106.04641703 12.50499343 102.01102668 12.50266399 97.97544861 12.48538399 C94.17984342 12.4698382 90.38474107 12.47395394 86.5891552 12.49268913 C85.20332366 12.49635373 83.8174542 12.49332923 82.43165779 12.48280334 C69.74870916 12.39388681 57.53614582 15.34123371 48.953125 25.3984375 Z " fill="#9CD3E3" transform="translate(0,0)"/>
<path d="M0 0 C1.80640709 -0.01506844 1.80640709 -0.01506844 3.64930725 -0.03044128 C4.99104247 -0.03647165 6.33277834 -0.04235663 7.67451477 -0.04811096 C9.08215571 -0.05764783 10.48979428 -0.06753891 11.89743042 -0.07775879 C16.52793081 -0.10916813 21.15844929 -0.12941564 25.78901672 -0.14796448 C26.57681778 -0.1512618 27.36461884 -0.15455912 28.17629266 -0.15795636 C35.60657237 -0.18874211 43.03685612 -0.21544973 50.46718121 -0.23237514 C59.97026148 -0.25427559 69.47277627 -0.29622802 78.97563046 -0.36581272 C85.65767501 -0.41307907 92.33956716 -0.43731232 99.02177364 -0.44457203 C103.01232387 -0.44952512 107.00223706 -0.46457146 110.99260521 -0.50431633 C114.74962837 -0.54124277 118.50565233 -0.5495736 122.2628231 -0.5363102 C124.29286483 -0.53638966 126.32283778 -0.56620246 128.35264587 -0.59700012 C138.32904097 -0.51762964 138.32904097 -0.51762964 142.65115356 3.07919312 C146.04648414 6.57705759 146.46623975 8.86533349 146.48023987 13.71366882 C146.48595001 14.89414291 146.49166016 16.074617 146.49754333 17.29086304 C146.49922012 19.243619 146.49922012 19.243619 146.50093079 21.23582458 C146.50555825 22.61553073 146.51058281 23.9952356 146.51597595 25.37493896 C146.52911099 29.1292354 146.53554733 32.88351395 146.53998661 36.63782978 C146.54291624 38.98336084 146.54702089 41.32888699 146.55149078 43.67441559 C146.56517012 51.01283695 146.574834 58.35124711 146.57869267 65.68968034 C146.58317129 74.16078651 146.60070812 82.63173115 146.62969327 91.10278821 C146.65131701 97.64979293 146.66139736 104.19675224 146.66273379 110.7437923 C146.66378155 114.65417609 146.66968275 118.56440814 146.68755341 122.47475433 C146.70404561 126.15523896 146.70618415 129.83545798 146.6974144 133.51596642 C146.69627816 135.50675768 146.70998764 137.49754016 146.72416687 139.48828125 C146.71581314 141.27591133 146.71581314 141.27591133 146.70729065 143.09965515 C146.70875721 144.13130924 146.71022377 145.16296333 146.71173477 146.22587967 C146.15377056 150.62846974 144.63631258 153.83719136 141.52667904 157.01139927 C138.66565501 158.5148988 136.57919916 158.54095111 133.34970093 158.54830933 C132.12296158 158.55821396 130.89622223 158.56811859 129.63230896 158.57832336 C128.27577109 158.57408537 126.9192342 158.56952752 125.56269836 158.56468201 C124.13181016 158.57038525 122.70092652 158.57734934 121.27005005 158.58547974 C117.38571202 158.60343184 113.50159963 158.60223893 109.61723256 158.59653735 C106.37413321 158.59344835 103.13107738 158.59953476 99.88798422 158.6055761 C92.23687559 158.61962654 84.58587861 158.61805584 76.93476868 158.60667419 C69.04234721 158.59519299 61.15026554 158.60926732 53.25788885 158.63607067 C46.48069174 158.65822473 39.70360132 158.66486571 32.92637056 158.65899426 C28.87909493 158.65562267 24.83203712 158.65805288 20.78479195 158.67524529 C16.97861136 158.69070777 13.17293425 158.68676715 9.36677361 158.66794014 C7.97078422 158.66425222 6.57475758 158.66736876 5.17880249 158.67782593 C3.27153274 158.69102134 1.36413305 158.67708913 -0.54312134 158.66183472 C-1.6099713 158.66162543 -2.67682127 158.66141615 -3.77600002 158.66120052 C-7.42333763 158.02818233 -9.04728229 156.74557785 -11.66020203 154.16062927 C-13.86909378 150.94361042 -13.91894151 148.18595962 -13.94108582 144.33584595 C-13.9525061 143.14565353 -13.96392639 141.95546112 -13.97569275 140.72920227 C-13.97792847 139.42677582 -13.98016418 138.12434937 -13.98246765 136.78245544 C-13.99172838 135.39422073 -14.0017783 134.00599109 -14.01255798 132.61776733 C-14.03876764 128.84906124 -14.0516882 125.08042633 -14.0605793 121.31164336 C-14.06644679 118.95570087 -14.07465751 116.59977772 -14.08358765 114.24384499 C-14.11092704 106.86858754 -14.13026564 99.49337443 -14.13799143 92.11806983 C-14.1469517 83.61169414 -14.18204596 75.10596141 -14.23999262 66.59978122 C-14.28325897 60.01958983 -14.30340167 53.43957912 -14.30607367 46.85924703 C-14.30816743 42.93134628 -14.31993027 39.00405033 -14.35571289 35.07629967 C-14.38873321 31.37995051 -14.39295951 27.68465881 -14.37543488 23.98821449 C-14.37316609 21.99161195 -14.40055804 19.99504407 -14.42893982 17.99864197 C-14.33774293 8.18446279 -14.33774293 8.18446279 -10.74064636 3.86273193 C-7.21450376 0.42602765 -4.89777741 0.03202109 0 0 Z " fill="#FDFDFE" transform="translate(77.66020202636719,35.83937072753906)"/>
<path d="M0 0 C0.33 0 0.66 0 1 0 C0.99097656 1.03898437 0.98195312 2.07796875 0.97265625 3.1484375 C1.08180634 11.48389953 1.63483287 16.82222951 7.13312531 23.4419632 C13.64669515 32.36701395 13.58063136 43.17935334 13.51757812 53.76757812 C13.5230111 55.31636713 13.5301403 56.86515095 13.53881836 58.41392517 C13.55691522 62.58550599 13.55004123 66.75668715 13.53730202 70.92827415 C13.52710303 75.31486381 13.5365867 79.70142155 13.54284668 84.0880127 C13.55010315 91.45147785 13.54058816 98.814782 13.52148438 106.17822266 C13.49971946 114.6648418 13.50677225 123.15107641 13.52879 131.63768625 C13.54700128 138.95273814 13.54947445 146.26767496 13.53903532 153.58274221 C13.53283174 157.9391824 13.5318776 162.29544245 13.54518127 166.65187073 C13.55682303 170.74956122 13.54856405 174.84676085 13.52560425 178.94439888 C13.52036122 180.43903861 13.52175438 181.93372039 13.53065491 183.42834282 C13.60593573 197.3657333 11.00656459 209.62799056 1.1171875 219.96875 C-10.30024561 230.53547241 -23.37664593 232.4548945 -38.43286133 232.40405273 C-39.96987908 232.40976545 -41.5068926 232.41673318 -43.04389954 232.42485046 C-47.19287012 232.44270005 -51.34162826 232.44162874 -55.49062562 232.43590808 C-58.96689151 232.4328035 -62.44311734 232.43892291 -65.91937751 232.44494683 C-74.128008 232.45896429 -82.33653436 232.4574547 -90.54516602 232.44604492 C-98.98399716 232.43457359 -107.42251012 232.44862909 -115.86129934 232.4754414 C-123.13300416 232.49767159 -130.40460965 232.50421915 -137.676346 232.49836498 C-142.00771024 232.49501078 -146.33887074 232.49730701 -150.67020607 232.51461601 C-154.74733433 232.53019977 -158.82399532 232.52600457 -162.90110588 232.50731087 C-164.3872685 232.50365597 -165.87346662 232.50664165 -167.35959625 232.51719666 C-182.54853999 232.61673787 -194.58962148 229.52642907 -205.99609375 219.19140625 C-214.13950503 210.76779157 -217.10406822 199.86332564 -217.14717102 188.39889526 C-217.15432632 187.08696701 -217.16148163 185.77503876 -217.16885376 184.4233551 C-217.17169355 182.98129296 -217.17440533 181.53923057 -217.17700195 180.09716797 C-217.18327285 178.56897326 -217.1899202 177.04078007 -217.19691467 175.5125885 C-217.2178845 170.50579882 -217.22831102 165.49900909 -217.23828125 160.4921875 C-217.24233157 158.76326609 -217.24644857 157.03434483 -217.25063133 155.30542374 C-217.26966814 147.17998483 -217.28390184 139.05455491 -217.2922433 130.92909801 C-217.30200774 121.57398747 -217.32831286 112.21911403 -217.36874419 102.86408699 C-217.39898154 95.61712733 -217.41371941 88.37023536 -217.41702431 81.12321389 C-217.41936623 76.80241164 -217.42821418 72.48186313 -217.45348549 68.161129 C-217.47690495 64.09148277 -217.48094432 60.02225487 -217.47072411 55.95255852 C-217.47023198 54.46757674 -217.47645606 52.98257338 -217.49028015 51.49765587 C-217.58931351 40.219497 -216.34997727 29.60734857 -209.375 20.3125 C-208.78460938 19.50425781 -208.19421875 18.69601563 -207.5859375 17.86328125 C-206 16 -206 16 -204 15 C-203.99853344 15.90814642 -203.99706688 16.81629284 -203.99555588 17.75195885 C-203.95847075 39.87034243 -203.8994333 61.98857299 -203.81609726 84.1068325 C-203.77632309 94.80315775 -203.74392233 105.4994096 -203.72900391 116.19580078 C-203.71597902 125.52103441 -203.68899287 134.84610643 -203.64538693 144.17124903 C-203.62279106 149.10682204 -203.6070882 154.04219585 -203.60811615 158.97782516 C-203.60886386 163.62855683 -203.59086835 168.27884847 -203.55883217 172.92946625 C-203.55035134 174.63133104 -203.54857085 176.33324529 -203.55419731 178.03512192 C-203.58716291 189.54428844 -202.90136923 198.96986373 -195 208 C-195 208.66 -195 209.32 -195 210 C-194.46375 210.2475 -193.9275 210.495 -193.375 210.75 C-191 212 -191 212 -188.375 213.9375 C-179.62806659 219.2828482 -170.66388361 219.43845714 -160.63696289 219.40405273 C-159.2149248 219.4097667 -157.79289128 219.41673489 -156.37086487 219.42485046 C-152.53606298 219.44268342 -148.70149114 219.44163231 -144.86666036 219.43590808 C-141.65364951 219.432802 -138.44068195 219.43892433 -135.22767729 219.44494683 C-127.64238898 219.45895792 -120.05721338 219.4574592 -112.47192383 219.44604492 C-104.67151704 219.43456564 -96.87145416 219.44864384 -89.07109267 219.4754414 C-82.34973116 219.49765939 -75.62847713 219.50422213 -68.90708154 219.49836498 C-64.90329807 219.49500891 -60.89973499 219.49731998 -56.89598274 219.51461601 C-53.12910047 219.53018103 -49.3627244 219.52602513 -45.59586143 219.50731087 C-43.57152879 219.50191964 -41.54717288 219.5160658 -39.52288818 219.53100586 C-28.44247378 219.4423531 -18.48007938 217.13752012 -10.2265625 209.3203125 C-0.31114114 198.90284449 -0.41273379 187.7390644 -0.45410156 174.14794922 C-0.44535683 172.24501199 -0.43486793 170.34208211 -0.42277527 168.43916321 C-0.39500494 163.29729843 -0.3915086 158.15567465 -0.39249516 153.01374578 C-0.38935834 147.63118995 -0.36372413 142.24874142 -0.34051514 136.86624146 C-0.30001047 126.68448528 -0.27962741 116.50279306 -0.26654124 106.32096875 C-0.25065247 94.72476961 -0.21222889 83.12867901 -0.17194796 71.53254294 C-0.08962471 47.68839843 -0.03548527 23.84425699 0 0 Z " fill="#587781" transform="translate(246,43)"/>
<path d="M0 0 C4.95 0 9.9 0 15 0 C15.21914063 1.03898438 15.43828125 2.07796875 15.6640625 3.1484375 C18.41204442 15.5069372 22.19617568 25.49095898 33 33 C43.86598147 39.50574687 53.82623709 40.30017893 66.20581055 40.29052734 C67.74253158 40.2965193 69.27924961 40.30332638 70.81596375 40.31088257 C74.97327134 40.32848442 79.13049649 40.33323556 83.28783774 40.33451414 C85.89109185 40.3359399 88.49432528 40.34021757 91.09757423 40.34550858 C100.19649195 40.36399145 109.29535124 40.3721816 118.39428711 40.37060547 C126.8478323 40.36940538 135.30112163 40.39048609 143.75460213 40.4220928 C151.03474863 40.44833302 158.31481197 40.45896949 165.59500533 40.45769465 C169.93312039 40.45718718 174.27100801 40.46275028 178.60907555 40.48405075 C182.694365 40.50356366 186.77921315 40.50346958 190.86451912 40.48901749 C192.35391264 40.48694417 193.84333474 40.49154093 195.33267975 40.5037384 C209.0838415 40.6089575 221.46099878 38.42768299 232 29 C236.53529454 24.15606538 239.74613452 19.23127514 242 13 C242.33 13.66 242.66 14.32 243 15 C249.27 15 255.54 15 262 15 C262.33 19.29 262.66 23.58 263 28 C263.33 23.71 263.66 19.42 264 15 C267.3 15 270.6 15 274 15 C274 27.87 274 40.74 274 54 C178.96 54 83.92 54 -14 54 C-14 41.13 -14 28.26 -14 15 C-10.04 15 -6.08 15 -2 15 C-2 24.24 -2 33.48 -2 43 C-1.34 43 -0.68 43 0 43 C0 28.81 0 14.62 0 0 Z " fill="#92C7D7" transform="translate(14,234)"/>
<path d="M0 0 C0.33 0 0.66 0 1 0 C1.10205759 6.51027927 1.17173938 13.02034955 1.21972656 19.53125 C1.23974747 21.74259145 1.26697259 23.95388058 1.30175781 26.16503906 C1.35069627 29.35755378 1.37306467 32.54936396 1.390625 35.7421875 C1.41127014 36.71864227 1.43191528 37.69509705 1.45318604 38.70114136 C1.45635236 48.55484465 -1.49988533 56.18737952 -8.2890625 63.3203125 C-15.18269751 70.08803636 -24.09749875 74.10790001 -33.82273865 74.14717102 C-35.6456115 74.15790398 -35.6456115 74.15790398 -37.50531006 74.16885376 C-38.85436986 74.17169407 -40.20342994 74.17440579 -41.55249023 74.17700195 C-42.97186957 74.18326801 -44.39124726 74.18991494 -45.81062317 74.19691467 C-50.47660176 74.21795309 -55.14258064 74.22832175 -59.80859375 74.23828125 C-61.41771016 74.24232989 -63.0268264 74.24644684 -64.63594246 74.25063133 C-72.20182652 74.26968816 -79.76770083 74.28391413 -87.33360428 74.2922433 C-96.04805732 74.30199639 -104.76225506 74.32826314 -113.47661823 74.36874419 C-120.22246012 74.3989972 -126.96822925 74.41372113 -133.71413761 74.41702431 C-137.73765045 74.41936576 -141.76089073 74.42820611 -145.78433037 74.45348549 C-149.57734426 74.47693045 -153.36990938 74.48093438 -157.16297722 74.47072411 C-159.20033515 74.47000007 -161.23767112 74.48897852 -163.27493286 74.50878906 C-174.63725133 74.44519391 -185.72269222 72.35137765 -194 64 C-201.07194064 55.31713894 -203.46979555 47.1755213 -203.29296875 36.15625 C-203.28872391 35.14655151 -203.28447906 34.13685303 -203.28010559 33.09655762 C-203.26342214 29.89742443 -203.22578903 26.69894017 -203.1875 23.5 C-203.17243982 21.32032165 -203.15875375 19.14063335 -203.14648438 16.9609375 C-203.11355263 11.64040664 -203.06345736 6.3202497 -203 1 C-201 4 -201 4 -199.8125 7.6875 C-197.65953872 13.49623216 -194.02323102 18.54420485 -188.35546875 21.2734375 C-187.45441406 21.67820313 -186.55335938 22.08296875 -185.625 22.5 C-183.03125 23.90625 -183.03125 23.90625 -181 26 C-180.32514048 29.49166447 -180.07459543 32.55349035 -180.19775391 36.08789062 C-180.35175204 41.3113069 -179.33107956 43.9883773 -176 48 C-172.5617401 50.29217327 -171.29796866 50.25443198 -167.2507782 50.26742554 C-165.4527626 50.28022049 -165.4527626 50.28022049 -163.61842346 50.29327393 C-162.30147995 50.29236755 -160.98453644 50.29146118 -159.62768555 50.29052734 C-158.22812541 50.2965111 -156.82856859 50.30331629 -155.42901611 50.31088257 C-151.62517559 50.32856755 -147.82142502 50.33323905 -144.01754737 50.33451414 C-140.84170321 50.33641279 -137.66588003 50.34377012 -134.49004394 50.35085833 C-126.99571186 50.36715013 -119.50142783 50.37202665 -112.00708008 50.37060547 C-104.2788736 50.36940447 -96.5509466 50.39049588 -88.82281083 50.4220928 C-82.18660471 50.44825745 -75.55048985 50.45897266 -68.91423255 50.45769465 C-64.95128901 50.45718498 -60.98859366 50.46287057 -57.02570152 50.48405075 C-53.29670261 50.50343601 -49.56818852 50.50355607 -45.83917236 50.48901749 C-43.82214508 50.48593408 -41.80511774 50.50260469 -39.78816223 50.51989746 C-31.07930613 50.50889037 -31.07930613 50.50889037 -24 46 C-21.60270247 42.93716378 -21.92477741 40.10336014 -22.02856445 36.31445312 C-22.08685989 32.66071334 -21.80149272 29.59578779 -21 26 C-18.45165751 23.4213201 -16.02467314 22.10663624 -12.796875 20.484375 C-4.99534595 16.34389869 -2.49255144 7.97616461 0 0 Z " fill="#350148" transform="translate(245,189)"/>
<path d="M0 0 C53.68586387 0 53.68586387 0 64 10 C70.02513042 16.19249515 72.2609404 22.89905527 72.5625 31.4375 C72.28397205 40.41328773 69.81065242 46.59825258 63.375 52.875 C58.77403338 56.58376397 53.62520582 58.37532875 48 60 C47.09314453 60.26695679 47.09314453 60.26695679 46.16796875 60.53930664 C43.65585973 61.07312981 41.36488451 61.11258654 38.796875 61.09765625 C37.91354492 61.09515869 37.03021484 61.09266113 36.12011719 61.09008789 C35.00797852 61.08098389 33.89583984 61.07187988 32.75 61.0625 C29.2025 61.041875 25.655 61.02125 22 61 C22 71.23 22 81.46 22 92 C14.74 92 7.48 92 0 92 C0 61.64 0 31.28 0 0 Z " fill="#530266" transform="translate(111,69)"/>
<path d="M0 0 C0.69676377 0.16238096 1.39352755 0.32476192 2.11140537 0.49206352 C5.20829845 1.03662763 8.07331478 1.12589245 11.21751404 1.12698364 C13.09538101 1.13121338 13.09538101 1.13121338 15.01118469 1.13552856 C16.39083877 1.13358443 17.7704927 1.13153627 19.15014648 1.12939453 C20.60911096 1.13075018 22.06807509 1.13253104 23.52703857 1.13470459 C27.48363929 1.1392598 31.4402139 1.1374971 35.39681506 1.1343255 C39.54067222 1.13179156 43.68452716 1.13414237 47.8283844 1.13571167 C54.78801881 1.13753054 61.7476426 1.13513466 68.70727539 1.13037109 C76.74783601 1.12493115 84.78837127 1.12669032 92.82893127 1.1321975 C99.73692652 1.1367392 106.64491413 1.13737393 113.55291039 1.13475883 C117.67669564 1.13320161 121.80046898 1.13298706 125.92425346 1.13629532 C129.80251626 1.1391893 133.68074645 1.13717026 137.55900574 1.13140106 C138.98037728 1.13008157 140.40175158 1.1304538 141.82312202 1.13266373 C143.76724778 1.13540715 145.71137954 1.13135277 147.65550232 1.12698364 C148.74225471 1.12660662 149.82900709 1.12622959 150.94869137 1.12584114 C154.04049573 0.99832989 156.96203577 0.57418446 160 0 C160.10871967 2.54283234 160.18762401 5.08095088 160.25 7.625 C160.28351563 8.33785156 160.31703125 9.05070313 160.3515625 9.78515625 C160.44710229 14.99207492 159.51499326 17.92308604 156 22 C152.23644094 24.72308368 149.6263858 25.37789282 145.01026917 25.39440918 C143.80884277 25.40575897 142.60741638 25.41710876 141.36958313 25.42880249 C139.40495369 25.42440659 139.40495369 25.42440659 137.40063477 25.41992188 C136.0007764 25.42726506 134.60092409 25.43585203 133.20108032 25.44558716 C129.40558631 25.46778491 125.61030951 25.47073477 121.81475949 25.46883965 C118.64377575 25.46871987 115.47283791 25.47728671 112.30186695 25.48561716 C104.81994714 25.50484467 97.33813891 25.50773732 89.85620117 25.50097656 C82.14264698 25.4943347 74.42957086 25.51720709 66.71611363 25.55429029 C60.08834503 25.58499547 53.46073017 25.5963465 46.83289188 25.59245348 C42.87663839 25.59038694 38.92075701 25.59585012 34.964571 25.62034607 C31.24365144 25.64262486 27.52350885 25.640727 23.8025856 25.62041855 C21.79034466 25.61538833 19.77808917 25.63501846 17.76594543 25.65542603 C7.90721221 25.56366358 7.90721221 25.56366358 4.22740173 22.57385254 C-0.03889881 17.6439702 -0.27313503 14.19957126 -0.125 7.75 C-0.11597656 7.00492188 -0.10695312 6.25984375 -0.09765625 5.4921875 C-0.07418358 3.66131941 -0.03831525 1.83061762 0 0 Z " fill="#BCBBBC" transform="translate(64,215)"/>
<path d="M0 0 C0.33 0 0.66 0 1 0 C1 47.52 1 95.04 1 144 C-2.3 144.33 -5.6 144.66 -9 145 C-9.33 156.22 -9.66 167.44 -10 179 C-10.33 179 -10.66 179 -11 179 C-11.09361663 158.73703314 -11.16406392 138.47411043 -11.20724869 118.21097183 C-11.22783686 108.80154421 -11.25588553 99.39225129 -11.30175781 89.98291016 C-11.34174059 81.77768444 -11.36746001 73.57255633 -11.37635398 65.3672359 C-11.38154943 61.0262078 -11.39368173 56.68545883 -11.42292023 52.34452057 C-11.4502706 48.25035038 -11.45840583 44.15657168 -11.45243073 40.0623188 C-11.45352226 38.56765928 -11.46135868 37.07298531 -11.4768219 35.57840538 C-11.58848135 24.21941522 -10.3550621 13.59934491 -3.3125 4.25 C-2.40951172 3.02023438 -2.40951172 3.02023438 -1.48828125 1.765625 C-0.99714844 1.18296875 -0.50601563 0.6003125 0 0 Z " fill="#62848E" transform="translate(40,59)"/>
<path d="M0 0 C0.33 0 0.66 0 1 0 C0.99097656 1.03898437 0.98195312 2.07796875 0.97265625 3.1484375 C1.08181638 11.48466651 1.63592296 16.82143664 7.13287735 23.44270706 C13.69900575 32.43596403 13.56297329 43.29692261 13.45410156 53.95800781 C13.45297072 55.52626008 13.45361156 57.09451446 13.45587158 58.6627655 C13.45701043 62.88318451 13.43363708 67.10314068 13.40557575 71.32345295 C13.38042237 75.74765433 13.37820919 80.17186852 13.37347412 84.59613037 C13.36108503 92.95754198 13.32831899 101.31874221 13.28807616 109.6800611 C13.24323122 119.20612578 13.22133954 128.73220102 13.20129442 138.25834513 C13.15958235 157.83901433 13.08931013 177.4194938 13 197 C12.67 197 12.34 197 12 197 C12 175.55 12 154.1 12 132 C9.03 132.33 6.06 132.66 3 133 C2.01 134.98 2.01 134.98 1 137 C0.82041932 128.0418979 0.65525391 119.08355423 0.5 110.125 C0.48812275 109.44007854 0.4762455 108.75515709 0.46400833 108.04948044 C0.03498436 83.05326119 -0.08843998 58.06215489 -0.0625 33.0625 C-0.06121597 31.81607601 -0.06121597 31.81607601 -0.05990601 30.54447174 C-0.04862781 20.36295771 -0.02872169 10.18148032 0 0 Z " fill="#62818D" transform="translate(246,43)"/>
<path d="M0 0 C2.825625 -0.0825 5.65125 -0.165 8.5625 -0.25 C9.43849854 -0.28641602 10.31449707 -0.32283203 11.21704102 -0.36035156 C16.99405427 -0.44124932 20.2767645 0.64017268 25 4 C28.15602799 8.4795236 28.77544562 12.67810612 28 18 C26.79074971 21.37317187 25.77198305 23.35055394 23.03125 25.65625 C18.58851252 27.62571095 14.48195571 27.31862711 9.6875 27.1875 C4.8921875 27.0946875 4.8921875 27.0946875 0 27 C0 18.09 0 9.18 0 0 Z " fill="#F9F7FA" transform="translate(133,86)"/>
<path d="M0 0 C2.05078125 0.03255208 4.1015625 0.06510417 6.15234375 0.09765625 C7.508665 12.17058988 7.508665 12.17058988 4.5 16.4453125 C-3.84889388 23.12149302 -13.88160035 26.22630284 -24.44721985 26.21791077 C-25.09669325 26.21876519 -25.74616664 26.21961962 -26.41532105 26.22049993 C-28.58330559 26.22214206 -30.75121209 26.2166542 -32.91918945 26.21118164 C-34.4765574 26.21089947 -36.03392547 26.21105809 -37.59129333 26.21162415 C-41.81401475 26.21191095 -46.03670773 26.20603305 -50.25942254 26.19905019 C-54.67434562 26.19279725 -59.08926935 26.19221131 -63.50419617 26.19102478 C-71.86220422 26.18791719 -80.22019918 26.17971151 -88.57820147 26.16967529 C-98.09445863 26.15849639 -107.61071642 26.15299922 -117.12697852 26.14797986 C-136.70054506 26.13752843 -156.27409983 26.11994005 -175.84765625 26.09765625 C-175.84765625 25.76765625 -175.84765625 25.43765625 -175.84765625 25.09765625 C-125.35765625 25.09765625 -74.86765625 25.09765625 -22.84765625 25.09765625 C-22.84765625 21.13765625 -22.84765625 17.17765625 -22.84765625 13.09765625 C-20.12515625 12.07671875 -20.12515625 12.07671875 -17.34765625 11.03515625 C-11.48113491 8.6121788 -7.26858644 5.6033714 -2.84765625 1.09765625 C-1.84765625 0.09765625 -1.84765625 0.09765625 0 0 Z " fill="#5D7F89" transform="translate(240.84765625,248.90234375)"/>
<path d="M0 0 C0.33 0 0.66 0 1 0 C1 58.08 1 116.16 1 176 C-2.96 176 -6.92 176 -11 176 C-11.02465622 171.74585377 -11.04283899 167.49174502 -11.05493164 163.23754883 C-11.05997101 161.78929927 -11.06680253 160.34105483 -11.07543945 158.89282227 C-11.08752247 156.81525412 -11.09323211 154.73775303 -11.09765625 152.66015625 C-11.10289307 151.40855713 -11.10812988 150.15695801 -11.11352539 148.86743164 C-11 146 -11 146 -10 145 C-6.7 145 -3.4 145 0 145 C0 97.15 0 49.3 0 0 Z " fill="#5B6880" transform="translate(41,58)"/>
<path d="M0 0 C3.3 0 6.6 0 10 0 C10 9.24 10 18.48 10 28 C6.37 28.33 2.74 28.66 -1 29 C-1.02465881 25.03069011 -1.04284023 21.06140966 -1.05493164 17.09204102 C-1.05997057 15.74079614 -1.06680177 14.38955674 -1.07543945 13.03833008 C-1.08752419 11.09979566 -1.09269828 9.161222 -1.09765625 7.22265625 C-1.10289307 6.05484619 -1.10812988 4.88703613 -1.11352539 3.68383789 C-1 1 -1 1 0 0 Z " fill="#5C7D86" transform="translate(31,175)"/>
<path d="M0 0 C4.29 0 8.58 0 13 0 C13 4.29 13 8.58 13 13 C8.71 13 4.42 13 0 13 C0 8.71 0 4.42 0 0 Z " fill="#95CDDD" transform="translate(14,219)"/>
<path d="M0 0 C4.29 0 8.58 0 13 0 C13 4.29 13 8.58 13 13 C8.71 13 4.42 13 0 13 C0 8.71 0 4.42 0 0 Z " fill="#96CEDE" transform="translate(14,205)"/>
<path d="M0 0 C3.96 0 7.92 0 12 0 C12 4.29 12 8.58 12 13 C8.04 13 4.08 13 0 13 C0 8.71 0 4.42 0 0 Z " fill="#92CADB" transform="translate(0,234)"/>
<path d="M0 0 C3.96 0 7.92 0 12 0 C12 4.29 12 8.58 12 13 C8.04 13 4.08 13 0 13 C0 8.71 0 4.42 0 0 Z " fill="#95CDDD" transform="translate(0,219)"/>
<path d="M0 0 C3.96 0 7.92 0 12 0 C12 4.29 12 8.58 12 13 C8.04 13 4.08 13 0 13 C0 8.71 0 4.42 0 0 Z " fill="#96CEDE" transform="translate(0,205)"/>
<path d="M0 0 C4.29 0 8.58 0 13 0 C13 3.3 13 6.6 13 10 C8.71 10 4.42 10 0 10 C0 6.7 0 3.4 0 0 Z " fill="#8DC5D6" transform="translate(146,278)"/>
<path d="M0 0 C4.29 0 8.58 0 13 0 C13 3.3 13 6.6 13 10 C8.71 10 4.42 10 0 10 C0 6.7 0 3.4 0 0 Z " fill="#8DC5D6" transform="translate(58,278)"/>
<path d="M0 0 C4.29 0 8.58 0 13 0 C13 3.3 13 6.6 13 10 C8.71 10 4.42 10 0 10 C0 6.7 0 3.4 0 0 Z " fill="#8DC5D6" transform="translate(43,278)"/>
<path d="M0 0 C0.33 0 0.66 0 1 0 C1 4.29 1 8.58 1 13 C5.29 13 9.58 13 14 13 C14 13.33 14 13.66 14 14 C9.71 14 5.42 14 1 14 C1 18.62 1 23.24 1 28 C5.62 28 10.24 28 15 28 C15 23.71 15 19.42 15 15 C15.33 15 15.66 15 16 15 C16 19.29 16 23.58 16 28 C19.96 28 23.92 28 28 28 C28 28.33 28 28.66 28 29 C24.04 29 20.08 29 16 29 C16 32.3 16 35.6 16 39 C15.67 39 15.34 39 15 39 C15 35.7 15 32.4 15 29 C10.38 29 5.76 29 1 29 C1 32.3 1 35.6 1 39 C0.67 39 0.34 39 0 39 C0 35.7 0 32.4 0 29 C-3.96 29 -7.92 29 -12 29 C-12 28.67 -12 28.34 -12 28 C-8.04 28 -4.08 28 0 28 C0 23.38 0 18.76 0 14 C-3.96 14 -7.92 14 -12 14 C-12 13.67 -12 13.34 -12 13 C-8.04 13 -4.08 13 0 13 C0 8.71 0 4.42 0 0 Z " fill="#A6CDD8" transform="translate(27,249)"/>
<path d="M0 0 C3.3 0 6.6 0 10 0 C10 3.3 10 6.6 10 10 C6.7 10 3.4 10 0 10 C0 6.7 0 3.4 0 0 Z " fill="#8DC5D6" transform="translate(278,278)"/>
<path d="M0 0 C4.62 2.31 9.24 4.62 14 7 C13.67 8.32 13.34 9.64 13 11 C8.71 11 4.42 11 0 11 C0 7.37 0 3.74 0 0 Z " fill="#8EC5D5" transform="translate(43,265)"/>
<path d="M0 0 C0.99 0 1.98 0 3 0 C3 4.29 3 8.58 3 13 C1.35 13 -0.3 13 -2 13 C-1.34 8.71 -0.68 4.42 0 0 Z " fill="#93CADB" transform="translate(259,234)"/>
<path d="M0 0 C0.99 0 1.98 0 3 0 C3 4.29 3 8.58 3 13 C2.01 13 1.02 13 0 13 C0 8.71 0 4.42 0 0 Z " fill="#96CDDD" transform="translate(259,219)"/>
<path d="M0 0 C0.66 0.33 1.32 0.66 2 1 C2 4.3 2 7.6 2 11 C0.02 11 -1.96 11 -4 11 C-2.68 7.37 -1.36 3.74 0 0 Z " fill="#55717E" transform="translate(245,236)"/>
<path d="M0 0 C0 1.65 0 3.3 0 5 C-3.96 5 -7.92 5 -12 5 C-10.68 4.34 -9.36 3.68 -8 3 C-6.96875 2.46375 -5.9375 1.9275 -4.875 1.375 C-2 0 -2 0 0 0 Z " fill="#536F7C" transform="translate(232,257)"/>
<path d="M0 0 C1.73684533 3.47369066 2.30084112 5.07619937 2.625 8.75 C2.69976563 9.54921875 2.77453125 10.3484375 2.8515625 11.171875 C2.90054687 11.77515625 2.94953125 12.3784375 3 13 C2.01 13 1.02 13 0 13 C0 8.71 0 4.42 0 0 Z " fill="#93C8D8" transform="translate(28,234)"/>
<path d="M0 0 C0 1.32 0 2.64 0 4 C-2.97 4 -5.94 4 -9 4 C-9 3.34 -9 2.68 -9 2 C-2.25 0 -2.25 0 0 0 Z " fill="#8BC1D1" transform="translate(232,272)"/>
<path d="M0 0 C4.29 0.66 8.58 1.32 13 2 C13 2.33 13 2.66 13 3 C8.71 3 4.42 3 0 3 C0 2.01 0 1.02 0 0 Z " fill="#8DC4D4" transform="translate(58,273)"/>
<path d="M0 0 C2.97 0.99 5.94 1.98 9 3 C9 3.33 9 3.66 9 4 C6.03 4 3.06 4 0 4 C0 2.68 0 1.36 0 0 Z " fill="#55747F" transform="translate(58,258)"/>
</svg>
